{
  "accessors": [
    {
      "bufferView": 1,
      "componentType": 5126,
      "count": 612,
      "max": [
        0.32095998525619507,
        0.32591000199317932,
        0.19709999859333038
      ],
      "min": [
        -0.32095998525619507,
        -0.32591000199317932,
        -0.19709999859333038
      ],
      "type": "VEC3"
    },
    {
      "bufferView": 1,
      "byteOffset": 7344,
      "componentType": 5126,
      "count": 612,
      "max": [
        0.93273526430130005,
        0.91856449842453003,
        1
      ],
      "min": [
        -0.93273526430130005,
        -0.91856449842453003,
        -1
      ],
      "type": "VEC3"
    },
    {
      "bufferView": 0,
      "componentType": 5125,
      "count": 960,
      "max": [
        611
      ],
      "min": [
        0
      ],
      "type": "SCALAR"
    },
    {
      "bufferView": 1,
      "byteOffset": 14688,
      "componentType": 5126,
      "count": 612,
      "max": [
        0.32095998525619507,
        0.32591000199317932,
        0.19709999859333038
      ],
      "min": [
        -0.32095998525619507,
        -0.32591000199317932,
        -0.19709999859333038
      ],
      "type": "VEC3"
    },
    {
      "bufferView": 1,
      "byteOffset": 22032,
      "componentType": 5126,
      "count": 612,
      "max": [
        0.93273526430130005,
        0.91856449842453003,
        1
      ],
      "min": [
        -0.93273526430130005,
        -0.91856449842453003,
        -1
      ],
      "type": "VEC3"
    },
    {
      "bufferView": 0,
      "byteOffset": 3840,
      "componentType": 5125,
      "count": 960,
      "max": [
        611
      ],
      "min": [
        0
      ],
      "type": "SCALAR"
    },
    {
      "bufferView": 1,
      "byteOffset": 29376,
      "componentType": 5126,
      "count": 208,
      "max": [
        2.4934399127960205,
        -32.045669555664062,
        6.9623298645019531
      ],
      "min": [
        -0.35262998938560486,
        -34.953330993652344,
        -11.696430206298828
      ],
      "type": "VEC3"
    },
    {
      "bufferView": 1,
      "byteOffset": 31872,
      "componentType": 5126,
      "count": 208,
      "max": [
        0.92325854301452637,
        0.92377185821533203,
        1
      ],
      "min": [
        -0.92325854301452637,
        -0.92377185821533203,
        -0.92594867944717407
      ],
      "type": "VEC3"
    },
    {
      "bufferView": 0,
      "byteOffset": 7680,
      "componentType": 5125,
      "count": 324,
      "max": [
        207
      ],
      "min": [
        0
      ],
      "type": "SCALAR"
    },
    {
      "bufferView": 1,
      "byteOffset": 34368,
      "componentType": 5126,
      "count": 276,
      "max": [
        0.48271998763084412,
        0.59851998090744019,
        1.9646099805831909
      ],
      "min": [
        -0.48271998763084412,
        -0.57920002937316895,
        -1.181439995765686
      ],
      "type": "VEC3"
    },
    {
      "bufferView": 1,
      "byteOffset": 37680,
      "componentType": 5126,
      "count": 276,
      "max": [
        0.99997544288635254,
        0.91312932968139648,
        1
      ],
      "min": [
        -0.99997544288635254,
        -0.99252653121948242,
        -1
      ],
      "type": "VEC3"
    },
    {
      "bufferView": 0,
      "byteOffset": 8976,
      "componentType": 5125,
      "count": 444,
      "max": [
        275
      ],
      "min": [
        0
      ],
      "type": "SCALAR"
    },
    {
      "bufferView": 1,
      "byteOffset": 40992,
      "componentType": 5126,
      "count": 276,
      "max": [
        0.48271998763084412,
        0.59851998090744019,
        1.9646099805831909
      ],
      "min": [
        -0.48271998763084412,
        -0.57920002937316895,
        -1.181439995765686
      ],
      "type": "VEC3"
    },
    {
      "bufferView": 1,
      "byteOffset": 44304,
      "componentType": 5126,
      "count": 276,
      "max": [
        0.99997544288635254,
        0.91312932968139648,
        1
      ],
      "min": [
        -0.99997544288635254,
        -0.99252653121948242,
        -1
      ],
      "type": "VEC3"
    },
    {
      "bufferView": 0,
      "byteOffset": 10752,
      "componentType": 5125,
      "count": 444,
      "max": [
        275
      ],
      "min": [
        0
      ],
      "type": "SCALAR"
    },
    {
      "bufferView": 1,
      "byteOffset": 47616,
      "componentType": 5126,
      "count": 134,
      "max": [
        9.3125295639038086,
        2.7626500129699707,
        3.8426899909973145
      ],
      "min": [
        -20.644620895385742,
        -0.69866001605987549,
        -14.422430038452148
      ],
      "type": "VEC3"
    },
    {
      "bufferView": 1,
      "byteOffset": 49224,
      "componentType": 5126,
      "count": 134,
      "max": [
        0.88829123973846436,
        0.8669927716255188,
        0.89374363422393799
      ],
      "min": [
        -0.77026033401489258,
        -0.9997742772102356,
        -0.99978393316268921
      ],
      "type": "VEC3"
    },
    {
      "bufferView": 0,
      "byteOffset": 12528,
      "componentType": 5125,
      "count": 198,
      "max": [
        133
      ],
      "min": [
        0
      ],
      "type": "SCALAR"
    },
    {
      "bufferView": 1,
      "byteOffset": 50832,
      "componentType": 5126,
      "count": 3576,
      "max": [
        4.7464799880981445,
        0.92729002237319946,
        0.90972000360488892
      ],
      "min": [
        -4.7464799880981445,
        -5.7562298774719238,
        -0.82389998435974121
      ],
      "type": "VEC3"
    },
    {
      "bufferView": 1,
      "byteOffset": 93744,
      "componentType": 5126,
      "count": 3576,
      "max": [
        1,
        1,
        1
      ],
      "min": [
        -1,
        -1,
        -1
      ],
      "type": "VEC3"
    },
    {
      "bufferView": 0,
      "byteOffset": 13320,
      "componentType": 5125,
      "count": 5202,
      "max": [
        3575
      ],
      "min": [
        0
      ],
      "type": "SCALAR"
    },
    {
      "bufferView": 1,
      "byteOffset": 136656,
      "componentType": 5126,
      "count": 134,
      "max": [
        9.3125295639038086,
        2.7626500129699707,
        3.8426899909973145
      ],
      "min": [
        -20.644620895385742,
        -0.69866001605987549,
        -14.422430038452148
      ],
      "type": "VEC3"
    },
    {
      "bufferView": 1,
      "byteOffset": 138264,
      "componentType": 5126,
      "count": 134,
      "max": [
        0.88829123973846436,
        0.8669927716255188,
        0.89374363422393799
      ],
      "min": [
        -0.77026033401489258,
        -0.9997742772102356,
        -0.99978393316268921
      ],
      "type": "VEC3"
    },
    {
      "bufferView": 0,
      "byteOffset": 34128,
      "componentType": 5125,
      "count": 198,
      "max": [
        133
      ],
      "min": [
        0
      ],
      "type": "SCALAR"
    },
    {
      "bufferView": 1,
      "byteOffset": 139872,
      "componentType": 5126,
      "count": 320,
      "max": [
        0.94979000091552734,
        4.3849000930786133,
        4.747769832611084
      ],
      "min": [
        -0.94979000091552734,
        -4.3849000930786133,
        2.4772698879241943
      ],
      "type": "VEC3"
    },
    {
      "bufferView": 1,
      "byteOffset": 143712,
      "componentType": 5126,
      "count": 320,
      "max": [
        1,
        0.887451171875,
        0.99965822696685791
      ],
      "min": [
        -0.99861663579940796,
        -0.887451171875,
        -1
      ],
      "type": "VEC3"
    },
    {
      "bufferView": 0,
      "byteOffset": 34920,
      "componentType": 5125,
      "count": 492,
      "max": [
        319
      ],
      "min": [
        0
      ],
      "type": "SCALAR"
    },
    {
      "bufferView": 1,
      "byteOffset": 147552,
      "componentType": 5126,
      "count": 276,
      "max": [
        0.48271998763084412,
        0.59851998090744019,
        1.9646099805831909
      ],
      "min": [
        -0.48271998763084412,
        -0.57920002937316895,
        -1.181439995765686
      ],
      "type": "VEC3"
    },
    {
      "bufferView": 1,
      "byteOffset": 150864,
      "componentType": 5126,
      "count": 276,
      "max": [
        0.99997544288635254,
        0.91312932968139648,
        1
      ],
      "min": [
        -0.99997544288635254,
        -0.99252653121948242,
        -1
      ],
      "type": "VEC3"
    },
    {
      "bufferView": 0,
      "byteOffset": 36888,
      "componentType": 5125,
      "count": 444,
      "max": [
        275
      ],
      "min": [
        0
      ],
      "type": "SCALAR"
    },
    {
      "bufferView": 1,
      "byteOffset": 154176,
      "componentType": 5126,
      "count": 208,
      "max": [
        2.4934399127960205,
        -32.045669555664062,
        6.9623298645019531
      ],
      "min": [
        -0.35262998938560486,
        -34.953330993652344,
        -11.696430206298828
      ],
      "type": "VEC3"
    },
    {
      "bufferView": 1,
      "byteOffset": 156672,
      "componentType": 5126,
      "count": 208,
      "max": [
        0.92325854301452637,
        0.92377185821533203,
        1
      ],
      "min": [
        -0.92325854301452637,
        -0.92377185821533203,
        -0.92594867944717407
      ],
      "type": "VEC3"
    },
    {
      "bufferView": 0,
      "byteOffset": 38664,
      "componentType": 5125,
      "count": 324,
      "max": [
        207
      ],
      "min": [
        0
      ],
      "type": "SCALAR"
    },
    {
      "bufferView": 1,
      "byteOffset": 159168,
      "componentType": 5126,
      "count": 208,
      "max": [
        1.5298600196838379,
        1.5298600196838379,
        4.9077301025390625
      ],
      "min": [
        -1.5298600196838379,
        -1.5298600196838379,
        -2.4958798885345459
      ],
      "type": "VEC3"
    },
    {
      "bufferView": 1,
      "byteOffset": 161664,
      "componentType": 5126,
      "count": 208,
      "max": [
        0.92388087511062622,
        0.92388087511062622,
        1
      ],
      "min": [
        -0.92388087511062622,
        -0.92388087511062622,
        -1
      ],
      "type": "VEC3"
    },
    {
      "bufferView": 0,
      "byteOffset": 39960,
      "componentType": 5125,
      "count": 324,
      "max": [
        207
      ],
      "min": [
        0
      ],
      "type": "SCALAR"
    },
    {
      "bufferView": 1,
      "byteOffset": 164160,
      "componentType": 5126,
      "count": 612,
      "max": [
        0.32095998525619507,
        0.32591000199317932,
        0.19709999859333038
      ],
      "min": [
        -0.32095998525619507,
        -0.32591000199317932,
        -0.19709999859333038
      ],
      "type": "VEC3"
    },
    {
      "bufferView": 1,
      "byteOffset": 171504,
      "componentType": 5126,
      "count": 612,
      "max": [
        0.93273526430130005,
        0.91856449842453003,
        1
      ],
      "min": [
        -0.93273526430130005,
        -0.91856449842453003,
        -1
      ],
      "type": "VEC3"
    },
    {
      "bufferView": 0,
      "byteOffset": 41256,
      "componentType": 5125,
      "count": 960,
      "max": [
        611
      ],
      "min": [
        0
      ],
      "type": "SCALAR"
    }
  ],
  "asset": {
    "generator": "Sketchfab (OSG glTF plugin)",
    "version": "2.0"
  },
  "bufferViews": [
    {
      "buffer": 0,
      "byteLength": 45096,
      "byteOffset": 0,
      "name": "floatBufferViews",
      "target": 34963
    },
    {
      "buffer": 0,
      "byteLength": 178848,
      "byteOffset": 45096,
      "byteStride": 12,
      "name": "floatBufferViews",
      "target": 34962
    }
  ],
  "buffers": [
    {
      "byteLength": 223944,
      "uri": "scene.bin"
    }
  ],
  "materials": [
    {
      "doubleSided": true,
      "emissiveFactor": [
        0,
        0,
        0
      ],
      "name": "Root",
      "pbrMetallicRoughness": {
        "baseColorFactor": [
          0.37285119779999998,
          0.37285119779999998,
          0.37285119779999998,
          1
        ],
        "metallicFactor": 0.95775685820000001,
        "roughnessFactor": 0.33155131790000003
      }
    }
  ],
  "meshes": [
    {
      "name": "Cylinder.011_0",
      "primitives": [
        {
          "attributes": {
            "NORMAL": 1,
            "POSITION": 0
          },
          "indices": 2,
          "material": 0,
          "mode": 4
        }
      ]
    },
    {
      "name": "Cylinder.010_0",
      "primitives": [
        {
          "attributes": {
            "NORMAL": 4,
            "POSITION": 3
          },
          "indices": 5,
          "material": 0,
          "mode": 4
        }
      ]
    },
    {
      "name": "Cylinder.006_0",
      "primitives": [
        {
          "attributes": {
            "NORMAL": 7,
            "POSITION": 6
          },
          "indices": 8,
          "material": 0,
          "mode": 4
        }
      ]
    },
    {
      "name": "Cylinder.004_0",
      "primitives": [
        {
          "attributes": {
            "NORMAL": 10,
            "POSITION": 9
          },
          "indices": 11,
          "material": 0,
          "mode": 4
        }
      ]
    },
    {
      "name": "Cylinder.003_0",
      "primitives": [
        {
          "attributes": {
            "NORMAL": 13,
            "POSITION": 12
          },
          "indices": 14,
          "material": 0,
          "mode": 4
        }
      ]
    },
    {
      "name": "Cylinder.001_0",
      "primitives": [
        {
          "attributes": {
            "NORMAL": 16,
            "POSITION": 15
          },
          "indices": 17,
          "material": 0,
          "mode": 4
        }
      ]
    },
    {
      "name": "Plane_0",
      "primitives": [
        {
          "attributes": {
            "NORMAL": 19,
            "POSITION": 18
          },
          "indices": 20,
          "material": 0,
          "mode": 4
        }
      ]
    },
    {
      "name": "Cylinder_0",
      "primitives": [
        {
          "attributes": {
            "NORMAL": 22,
            "POSITION": 21
          },
          "indices": 23,
          "material": 0,
          "mode": 4
        }
      ]
    },
    {
      "name": "Cone_0",
      "primitives": [
        {
          "attributes": {
            "NORMAL": 25,
            "POSITION": 24
          },
          "indices": 26,
          "material": 0,
          "mode": 4
        }
      ]
    },
    {
      "name": "Cylinder.002_0",
      "primitives": [
        {
          "attributes": {
            "NORMAL": 28,
            "POSITION": 27
          },
          "indices": 29,
          "material": 0,
          "mode": 4
        }
      ]
    },
    {
      "name": "Cylinder.005_0",
      "primitives": [
        {
          "attributes": {
            "NORMAL": 31,
            "POSITION": 30
          },
          "indices": 32,
          "material": 0,
          "mode": 4
        }
      ]
    },
    {
      "name": "Cylinder.007_0",
      "primitives": [
        {
          "attributes": {
            "NORMAL": 34,
            "POSITION": 33
          },
          "indices": 35,
          "material": 0,
          "mode": 4
        }
      ]
    },
    {
      "name": "Cylinder.009_0",
      "primitives": [
        {
          "attributes": {
            "NORMAL": 37,
            "POSITION": 36
          },
          "indices": 38,
          "material": 0,
          "mode": 4
        }
      ]
    }
  ],
  "nodes": [
    {
      "children": [
        1
      ],
      "name": "RootNode (gltf orientation matrix)",
      "rotation": [
        -0.70710678118654746,
        -0,
        -0,
        0.70710678118654757
      ]
    },
    {
      "children": [
        2
      ],
      "name": "RootNode (model correction matrix)"
    },
    {
      "children": [
        3,
        6,
        9,
        12,
        15,
        18,
        21,
        23,
        26,
        29,
        32,
        35,
        38,
        41
      ],
      "name": "Root"
    },
    {
      "children": [
        4
      ],
      "matrix": [
        0,
        0,
        -0.40721000000000002,
        0,
        0,
        0.40721000000000002,
        0,
        0,
        0.40721000000000002,
        0,
        0,
        0,
        -1.0528500000000001,
        -0.90532999999999997,
        -1.26807,
        1
      ],
      "name": "Cylinder.011"
    },
    {
      "children": [
        5
      ],
      "name": "Geode"
    },
    {
      "mesh": 0,
      "name": "Cylinder.011_0"
    },
    {
      "children": [
        7
      ],
      "matrix": [
        0,
        0,
        -0.40721000000000002,
        0,
        0,
        0.40721000000000002,
        0,
        0,
        0.40721000000000002,
        0,
        0,
        0,
        1.1200700000000001,
        -0.90532999999999997,
        -1.26807,
        1
      ],
      "name": "Cylinder.010"
    },
    {
      "children": [
        8
      ],
      "name": "Geode"
    },
    {
      "mesh": 1,
      "name": "Cylinder.010_0"
    },
    {
      "children": [
        10
      ],
      "matrix": [
        -0.020900000000000005,
        -0.00015000000000000007,
        0.039650000000000012,
        0,
        0.00031000000000000011,
        -0.044820000000000013,
        0,
        0,
        0.039650000000000012,
        0.00028000000000000008,
        0.020900000000000005,
        0,
        -0.46458000000000005,
        -2.5716299999999999,
        -0.89322000000000012,
        1
      ],
      "name": "Cylinder.006"
    },
    {
      "children": [
        11
      ],
      "name": "Geode"
    },
    {
      "mesh": 2,
      "name": "Cylinder.006_0"
    },
    {
      "children": [
        13
      ],
      "matrix": [
        0.25084000000000001,
        0,
        0.007380000000000002,
        0,
        -0.007380000000000002,
        -0,
        0.25084000000000001,
        0,
        0,
        -0.25095000000000001,
        -0,
        0,
        -1.04535,
        -1.0212899999999998,
        -1.06345,
        1
      ],
      "name": "Cylinder.004"
    },
    {
      "children": [
        14
      ],
      "name": "Geode"
    },
    {
      "mesh": 3,
      "name": "Cylinder.004_0"
    },
    {
      "children": [
        16
      ],
      "matrix": [
        0.25068999999999997,
        0,
        -0.011520000000000002,
        0,
        0.011520000000000002,
        -0,
        0.25068999999999997,
        0,
        -0,
        -0.25095000000000001,
        -0,
        0,
        1.1205800000000001,
        -1.0212899999999998,
        -1.06345,
        1
      ],
      "name": "Cylinder.003"
    },
    {
      "children": [
        17
      ],
      "name": "Geode"
    },
    {
      "mesh": 4,
      "name": "Cylinder.003_0"
    },
    {
      "children": [
        19
      ],
      "matrix": [
        0.049750000000000009,
        0.020610000000000003,
        0,
        0,
        -0.020160000000000004,
        0.048680000000000008,
        -0.011090000000000003,
        0,
        0.0042400000000000007,
        -0.010250000000000002,
        -0.052690000000000015,
        0,
        -0.81430999999999998,
        -0.61355000000000004,
        -0.45123999999999997,
        1
      ],
      "name": "Cylinder.001"
    },
    {
      "children": [
        20
      ],
      "name": "Geode"
    },
    {
      "mesh": 5,
      "name": "Cylinder.001_0"
    },
    {
      "children": [
        22
      ],
      "matrix": [
        -0.29086000000000006,
        0.95517000000000007,
        -0.05519000000000001,
        0,
        -0.77110000000000001,
        -0.19988000000000003,
        0.60452000000000006,
        0,
        0.56639000000000006,
        0.21839000000000003,
        0.7946700000000001,
        0,
        4.0762500000000008,
        1.00545,
        5.9038600000000008,
        1
      ],
      "name": "Lamp"
    },
    {
      "name": "Lamp"
    },
    {
      "children": [
        24
      ],
      "name": "Plane"
    },
    {
      "children": [
        25
      ],
      "name": "Geode"
    },
    {
      "mesh": 6,
      "name": "Plane_0"
    },
    {
      "children": [
        27
      ],
      "matrix": [
        -0.053850000000000016,
        0,
        0,
        0,
        0,
        -0.052690000000000015,
        -0.011090000000000003,
        0,
        0,
        0.011090000000000003,
        -0.052690000000000015,
        0,
        0.85649000000000008,
        -0.45392000000000005,
        -0.45123999999999997,
        1
      ],
      "name": "Cylinder"
    },
    {
      "children": [
        28
      ],
      "name": "Geode"
    },
    {
      "mesh": 7,
      "name": "Cylinder_0"
    },
    {
      "children": [
        30
      ],
      "matrix": [
        -0.053320000000000013,
        0,
        -0.13153000000000001,
        0,
        -0.13122,
        0.0097500000000000035,
        0.053200000000000011,
        0,
        0.0090300000000000033,
        0.14159000000000002,
        -0.0036600000000000014,
        0,
        0.0037800000000000012,
        0.53732999999999997,
        -0.29952000000000006,
        1
      ],
      "name": "Cone"
    },
    {
      "children": [
        31
      ],
      "name": "Geode"
    },
    {
      "mesh": 8,
      "name": "Cone_0"
    },
    {
      "children": [
        33
      ],
      "matrix": [
        0.25091000000000002,
        0,
        0.0046100000000000004,
        0,
        -0.0046100000000000004,
        -0,
        0.25091000000000002,
        0,
        0,
        -0.25095000000000001,
        -0,
        0,
        0.029230000000000003,
        0.38024000000000002,
        -1.10873,
        1
      ],
      "name": "Cylinder.002"
    },
    {
      "children": [
        34
      ],
      "name": "Geode"
    },
    {
      "mesh": 9,
      "name": "Cylinder.002_0"
    },
    {
      "children": [
        36
      ],
      "matrix": [
        0.020900000000000005,
        0,
        0.039650000000000012,
        0,
        0,
        0.044820000000000013,
        0,
        0,
        -0.039650000000000012,
        0,
        0.020900000000000005,
        0,
        0.57059000000000004,
        0.46152000000000004,
        -0.89322000000000012,
        1
      ],
      "name": "Cylinder.005"
    },
    {
      "children": [
        37
      ],
      "name": "Geode"
    },
    {
      "mesh": 10,
      "name": "Cylinder.005_0"
    },
    {
      "children": [
        39
      ],
      "matrix": [
        0.04105000000000001,
        0,
        0,
        0,
        0,
        0.04105000000000001,
        0,
        0,
        0,
        0,
        0.04105000000000001,
        0,
        0.032290000000000006,
        0.40261000000000002,
        -0.89664000000000021,
        1
      ],
      "name": "Cylinder.007"
    },
    {
      "children": [
        40
      ],
      "name": "Geode"
    },
    {
      "mesh": 11,
      "name": "Cylinder.007_0"
    },
    {
      "children": [
        42
      ],
      "matrix": [
        0,
        0,
        -0.40721000000000002,
        0,
        0,
        0.40721000000000002,
        0,
        0,
        0.40721000000000002,
        0,
        0,
        0,
        0.025150000000000006,
        0.46509,
        -1.26807,
        1
      ],
      "name": "Cylinder.009"
    },
    {
      "children": [
        43
      ],
      "name": "Geode"
    },
    {
      "mesh": 12,
      "name": "Cylinder.009_0"
    }
  ],
  "scene": 0,
  "scenes": [
    {
      "name": "OSG_Scene",
      "nodes": [
        0
      ]
    }
  ]
}

